<svg xmlns="http://www.w3.org/2000/svg" width="132" height="105" fill="none"><path fill="#000" d="M46.903 15.311c-1.707-.341-3.286-1.109-4.736-2.304l.256-.256 4.48 2.304v.256Zm-5.12-2.56-.128.128c-3.072-1.45-6.528-5.333-10.368-11.648h.512a628.177 628.177 0 0 1 4.48 6.144c1.621 2.134 3.37 3.712 5.248 4.736 0 .086.085.299.256.64ZM61.11 67.407c.256 1.536.384 3.072.384 4.608 0 5.718-1.579 11.606-4.736 17.664-.342.683-.982 1.195-1.92 1.536.768-1.194 1.749-2.986 2.944-5.376 1.962-4.522 2.944-9.216 2.944-14.08 0-5.376-1.28-9.856-3.84-13.44-3.328-6.4-10.112-12.629-20.352-18.688a2.023 2.023 0 0 0-.768 1.28c7.253 5.12 12.629 9.899 16.128 14.336 4.864 6.23 7.082 12.843 6.656 19.84-.342 6.059-2.475 11.776-6.4 17.152-3.926 5.376-8.747 8.875-14.464 10.496-3.072.854-7.296 1.11-12.672.768-2.987-.853-7.254-2.389-12.8-4.608l-.896-.128a25.983 25.983 0 0 0-7.808-2.816l-3.456-.128v-.896c4.778-7.85 7.168-14.037 7.168-18.56a17.47 17.47 0 0 0-1.536-7.168c-.683-1.28-1.451-3.285-2.304-6.016h.64c2.645 2.134 4.565 5.462 5.76 9.984 1.792 6.742 2.858 10.454 3.2 11.136l4.608 4.608c-.086.512-.342 1.366-.768 2.56-.427 1.11-.64 1.963-.64 2.56 0 .683.213 1.323.64 1.92.853 1.878 2.048 3.2 3.584 3.968-.512-.938-1.067-2.432-1.664-4.48-.171-2.218.512-4.181 2.048-5.888-2.219-2.133-3.798-3.712-4.736-4.736-1.622-2.048-2.518-4.01-2.688-5.888-1.451-5.973-3.968-10.965-7.552-14.976 0-.256.042-.426.128-.512 2.56 1.963 4.608 4.864 6.144 8.704l3.328 10.24c1.194 1.878 3.328 4.096 6.4 6.656l-1.92 3.456c-.342.683-.512 1.366-.512 2.048 0 1.366.896 3.158 2.688 5.376a.868.868 0 0 0-.256.64c0 .171.682.726 2.048 1.664 1.365.427 2.773.64 4.224.64 3.157 0 7.68-1.621 13.568-4.864 6.314-4.522 9.472-10.794 9.472-18.816 0-1.28-.086-2.517-.256-3.712-.683-5.29-3.371-10.325-8.064-15.104-2.304-2.218-6.955-5.888-13.952-11.008-.427.086-.896.555-1.408 1.408v.768l12.032 9.728c4.608 4.096 7.338 8.278 8.192 12.544.341 1.622.512 3.2.512 4.736 0 7.254-2.816 12.886-8.448 16.896l-5.12 3.584c-.086 0-.342-.213-.768-.64V98c4.778-3.925 7.168-8.746 7.168-14.464 0-.768-.043-1.536-.128-2.304-.854-3.754-3.286-7.381-7.296-10.88-3.499-2.901-7.04-5.802-10.624-8.704-.427-.341-1.195-.768-2.304-1.28-3.072 4.779-4.608 9.216-4.608 13.312 0 2.304.597 4.438 1.792 6.4 1.194 1.963 2.858 3.243 4.992 3.84 1.194.427 2.389.384 3.584-.128 1.194-.597 2.005-1.493 2.432-2.688.341-.853.469-1.92.384-3.2a9.626 9.626 0 0 0-.896-1.024c-.256-.426-.64-.512-1.152-.256-.086.683-.512 1.536-1.28 2.56-.427.427-1.366.342-2.816-.256-.427-.341-.512-1.28-.256-2.816.341-.682 1.408-1.28 3.2-1.792.682 0 1.578.256 2.688.768.938 1.195 1.408 2.56 1.408 4.096 0 1.024-.214 1.963-.64 2.816-.598 1.366-1.878 2.347-3.84 2.944-2.987.427-5.632-.768-7.936-3.584-1.707-2.133-2.56-4.693-2.56-7.68 0-3.84 1.536-8.448 4.608-13.824v-.64c-11.52-8.448-17.28-16.81-17.28-25.088 0-1.792.213-3.584.64-5.376 1.024-3.584 3.328-7.04 6.912-10.368 1.792-1.621 5.162-4.138 10.112-7.552l8.448-8.448h.256c2.389 3.328 4.437 5.931 6.144 7.808 3.328 3.755 8.533 6.23 15.616 7.424 1.365-2.048 1.365-4.352 0-6.912-.342-.682-1.152-1.45-2.432-2.304-.427.086-.939.427-1.536 1.024.256.342.469.982.64 1.92-.427.256-.896.214-1.408-.128-.854-.512-1.28-.81-1.28-.896 0-.17-.043-.512-.128-1.024.682-.341 1.322-.853 1.92-1.536 0-.085-.384-.17-1.152-.256 0-.426.213-.682.64-.768.426-.085.81-.17 1.152-.256 1.109-.085 2.09.427 2.944 1.536a54.865 54.865 0 0 0 1.92 2.816c.426 1.195.64 2.432.64 3.712 0 2.475-1.664 6.358-4.992 11.648-.939 1.536-2.646 3.712-5.12 6.528-2.475 2.731-4.139 4.736-4.992 6.016 6.144 4.352 10.282 7.552 12.416 9.6 4.522 4.011 7.594 8.15 9.216 12.416.085.342.512 1.408 1.28 3.2.597 1.28.853 2.432.768 3.456ZM48.439 22.991c.256-.938-.128-1.493-1.152-1.664-1.622-.256-2.518-.469-2.688-.64l-.64.64h-8.576c1.024 1.28 2.773 1.963 5.248 2.048 1.962.086 3.968.128 6.016.128.426.171 1.024 0 1.792-.512Zm-1.792 1.664c-1.024-.085-2.432.043-4.224.384 2.389.768 3.626 1.152 3.712 1.152.682-.597.853-1.109.512-1.536Zm-4.608-4.736-5.888-2.944.128.768L30.39 18c.512.342 1.28.982 2.304 1.92h9.344Zm-6.4-3.328c-1.963-1.194-5.035-4.352-9.216-9.472l-.384.64c-1.024-.085-1.835.512-2.432 1.792.17.086 1.664.214 4.48.384.768.171 1.024.47.768.896-.086.086-1.536.214-4.352.384.17 1.451 1.109 2.134 2.816 2.048 2.389-.085 3.712-.042 3.968.128l.384.256c.17.512.17.811 0 .896-1.11-.085-2.688-.042-4.736.128.512 1.451 1.749 2.134 3.712 2.048l4.992-.128Zm9.344 10.88C33.889 22.95 26.465 17.573 22.71 11.343l-1.024-.128c-2.56 2.048-5.76 5.078-9.6 9.088-1.792 2.646-2.347 6.614-1.664 11.904.597 4.779 3.754 9.216 9.472 13.312 1.365 1.195 3.413 2.774 6.144 4.736l1.408-1.792c-4.694-3.413-8.619-6.741-11.776-9.984-2.816-2.816-4.224-6.186-4.224-10.112 0-1.621.298-3.242.896-4.864.682-1.706 1.877-3.242 3.584-4.608 1.792-1.365 3.584-2.133 5.376-2.304v.512c-1.536 1.536-2.39 3.798-2.56 6.784.341 4.096 2.73 7.595 7.168 10.496 1.962 1.28 4.864 3.115 8.704 5.504.426-.682.64-1.066.64-1.152l-7.936-5.888c-3.328-2.389-5.547-4.864-6.656-7.424-1.024-2.389-.854-4.736.512-7.04.17 0 .384.086.64.256a11.266 11.266 0 0 0-.512 3.328c0 3.158 1.706 6.187 5.12 9.088a611.532 611.532 0 0 1 9.216 6.528l.768.128c2.048-2.133 4.906-5.546 8.576-10.24Zm-28.544-6.4c-.768-.17-1.408.427-1.92 1.792l1.408.128c.426-.512.597-1.152.512-1.92Zm-.64 5.76c0-.682-.043-1.578-.128-2.688-.598.086-1.195.214-1.792.384-.512.171-.768.598-.768 1.28.682 0 1.578.342 2.688 1.024ZM8.63 21.583c-.086.171-.299.342-.64.512-.256.171-.342.427-.256.768.341 0 .554-.213.64-.64.085-.426.17-.64.256-.64Zm-1.152 2.56H6.71c-.342.086-.598.384-.768.896-.086.512-.171.811-.256.896.256 0 .597.128 1.024.384l.768-2.176Zm46.336 52.992c.17-1.109.256-2.218.256-3.328 0-4.522-1.622-9.642-4.864-15.36-.683-.768-1.536-1.877-2.56-3.328-1.707-1.365-4.182-3.37-7.424-6.016-4.779-3.242-11.734-8.533-20.864-15.872a19.535 19.535 0 0 1-2.56-6.144c-.256.427-.768.64-1.536.64-.768-.085-1.238-.085-1.408 0-.171.427-.256.768-.256 1.024 0 .683.597.982 1.792.896 1.194-.085 1.92.128 2.176.64-.171.598-.64.854-1.408.768-1.024-.17-1.707-.17-2.048 0-.086.512.17 1.11.768 1.792.256.086 1.152.128 2.688.128 1.194 0 1.92.342 2.176 1.024-.939 0-2.347.171-4.224.512.341 1.28 1.322 1.92 2.944 1.92l4.224-.128.512.512c.17.086.256.214.256.384 0 .171-.086.299-.256.384l-5.248.128c.597 1.451 1.962 2.176 4.096 2.176 3.413-.085 5.077-.128 4.992-.128l1.024.896c-.683.342-1.75.47-3.2.384-1.536-.17-2.646-.17-3.328 0 0 .086.554.683 1.664 1.792l8.32.128c.768.854 1.152 1.238 1.152 1.152-.086.086-2.432.171-7.04.256.085.427.384.811.896 1.152.512.256.981.512 1.408.768l8.32.128 1.024 1.024-.384.384-6.144-.256-.512.384c.938 1.024 1.749 1.622 2.432 1.792l8.192.128c.597.342.853.683.768 1.024l-7.04.256c.853 1.451 2.432 2.176 4.736 2.176l5.76-.128.64.896c-1.451 0-3.67.171-6.656.512.682 1.366 2.005 2.006 3.968 1.92l4.992-.128.512.384c.426.427.384.768-.128 1.024l-5.12.128c.597 1.28 1.578 1.963 2.944 2.048l3.84-.256.768.512c.085.171.042.427-.128.768-.939 0-2.304.086-4.096.256l1.28 1.792c1.109-.17 2.645.043 4.608.64-.086.427-.555.64-1.408.64-1.11 0-1.792.043-2.048.128l.768 1.792c.256.086 1.024.128 2.304.128 1.024 0 1.578.342 1.664 1.024l-2.944.384c-.171 1.024.213 1.622 1.152 1.792 1.536.342 2.346.555 2.432.64.085.427 0 .683-.256.768-.171.086-.512.086-1.024 0-.512 0-.854.086-1.024.256v.384c-.086.768.298 1.238 1.152 1.408.938.171 1.45.47 1.536.896-.086.427-.384.64-.896.64-.512-.085-.811-.042-.896.128.085.256.128.768.128 1.536.426 0 .981.214 1.664.64 0 .256-.512.598-1.536 1.024-.342 1.195.128 1.92 1.408 2.176.341-.853.384-1.834.128-2.944Zm-.128 3.584c-1.11.171-1.622.811-1.536 1.92.17.171.426.384.768.64.597-.597.853-1.45.768-2.56Zm-9.856-.896c.17.598-.043.939-.64 1.024-.598.086-.939.214-1.024.384 0 .086.085.64.256 1.664.682.256 1.024.47 1.024.64 0 .086-.256.342-.768.768-.512.342-.768.726-.768 1.152 0 .171.085.384.256.64.426.427.768.384 1.024-.128.512-2.389.768-4.65.768-6.784 0-4.352-1.11-7.85-3.328-10.496-2.731-3.242-6.443-6.698-11.136-10.368a1094.764 1094.764 0 0 1-12.032-9.088C9.952 43.258 6.198 36.815 6.198 29.903c0-.853.085-1.749.256-2.688-.342.086-.768.171-1.28.256-.854.427-1.11 1.067-.768 1.92.512-.085 1.066.043 1.664.384.17.512.085.811-.256.896-.171.086-.512.086-1.024 0-.512 0-.854.086-1.024.256v1.792c.682-.085 1.536 0 2.56.256.085.683-.128 1.067-.64 1.152H4.15c-.598.086-.811.47-.64 1.152 0 .598.597.811 1.792.64.085.171.512.256 1.28.256.512 0 .725.256.64.768-.256.342-.854.512-1.792.512-.854 0-1.408.043-1.664.128-.086 1.024.256 1.622 1.024 1.792h2.304c.938 0 1.493.342 1.664 1.024-.854 0-2.134.171-3.84.512v.256c.256 1.11 1.45 1.664 3.584 1.664 1.365 0 2.261.299 2.688.896-.512.342-1.238.47-2.176.384-1.195-.17-2.006-.17-2.432 0 .17 1.451 1.066 2.176 2.688 2.176a822.78 822.78 0 0 0 4.224-.128l1.024.896-.384.384-5.248.128c.17.512.682 1.11 1.536 1.792l7.168.256.64.64c.085.171-.043.384-.384.64-1.195-.085-3.072-.128-5.632-.128l-.384.256c.341.427.938.982 1.792 1.664l7.936.128.64.512c.256.342.213.598-.128.768h-6.4c0 .086.682.768 2.048 2.048h7.936l1.152.896-.384.384-6.656.128 1.92 1.792 8.32.256 1.024.896-.384.384c-1.622-.17-3.84-.128-6.656.128.853 1.366 2.432 2.006 4.736 1.92 3.328-.085 5.162-.042 5.504.128.682.256.981.555.896.896-1.536 0-3.84.128-6.912.384.853 1.28 2.304 1.963 4.352 2.048 1.706-.085 3.413-.128 5.12-.128.853.171 1.194.555 1.024 1.152l-6.272.128c.597 1.451 1.834 2.176 3.712 2.176 2.816-.085 4.394-.085 4.736 0l.512.512c0 .171-.128.384-.384.64-1.11-.085-2.688-.042-4.736.128.426 1.195 1.322 1.878 2.688 2.048h3.456c.17.342.256.598.256.768 0 .342-.214.512-.64.512-.171 0-.47-.042-.896-.128-.427-.085-.726-.128-.896-.128-.512 0-.854.128-1.024.384l.256.384c.085.939.64 1.408 1.664 1.408 1.45.086 2.304.214 2.56.384.085.512-.043.854-.384 1.024h-1.152c-.512-.085-.854 0-1.024.256l.256.128c-.256.768-.043 1.238.64 1.408 1.109.256 1.706.384 1.792.384Zm8.96 4.48c-.342-.085-.598.043-.768.384-.171 1.11-.214 1.707-.128 1.792l.896-2.176Zm-10.496 3.328c-.342-.085-.555.128-.64.64 0 .427-.043.683-.128.768l.768-1.408Zm-29.312 10.24c-.342-1.621-.384-4.053-.128-7.296a127.549 127.549 0 0 0-3.2-3.84c-1.024-1.365-1.622-2.73-1.792-4.096.085.427-.128.939-.64 1.536-.427.512-.64.982-.64 1.408.17.086.682.128 1.536.128.597 0 .981.299 1.152.896-.939 0-2.091.214-3.456.64-.683.768-.896 1.323-.64 1.664 1.28 0 3.242.043 5.888.128l.512.512c.17.342.085.598-.256.768-.342.171-.768.256-1.28.256s-1.28-.042-2.304-.128c-.939-.17-1.622-.256-2.048-.256-1.451 0-2.219.64-2.304 1.92 1.962 0 4.906.171 8.832.512.085.256-.086.598-.512 1.024l-9.344-.128c-.598.512-.768.896-.512 1.152 5.973.683 9.344.982 10.112.896l.384.384c.426.683.085 1.067-1.024 1.152.256.427.81.683 1.664.768ZM131.243 9.68c-2.646 2.304-6.742 5.59-12.288 9.856-.086-.085-.128-.256-.128-.512 2.645-2.389 6.741-5.76 12.288-10.112l.128.256v.512Zm-29.952-.896c-.939.086-1.963-.128-3.072-.64a54.238 54.238 0 0 0-3.072-1.664l-5.12-3.712.128-.384c1.194.768 2.986 1.878 5.376 3.328 1.28.598 3.2 1.536 5.76 2.816v.256Zm20.736 28.672c-1.622 4.182-4.224 10.326-7.808 18.432l-.512-.384c1.45-3.157 3.413-8.064 5.888-14.72.341-.938 1.024-2.304 2.048-4.096h.384v.768Zm-36.608.256c-.427.086-1.067-.512-1.92-1.792-1.024-2.56-1.024-4.48 0-5.76l.64.512c-.427.512-.64 1.152-.64 1.92 0 1.11.384 2.304 1.152 3.584.597.683.853 1.195.768 1.536Zm14.592-26.368c.17.342.085.64-.256.896l-.768.768c-1.366 2.304-2.048 6.443-2.048 12.416l-.128 43.392c-.598 4.523-1.195 7.638-1.792 9.344-1.11 3.243-2.944 5.675-5.504 7.296-2.219 1.366-4.395 2.176-6.528 2.432-.427-.341-.47-.81-.128-1.408 2.133-2.304 3.285-5.76 3.456-10.368 0-3.754.042-7.552.128-11.392v-6.4c-.171-.17-.256-.341-.256-.512 0-.17.085-.341.256-.512v-8.832l.128-28.928c0-.597.042-1.621.128-3.072v-3.072c0-5.12-1.408-8.576-4.224-10.368-.939-.426-2.006-.725-3.2-.896l-.128-.768C82.73.847 86.4 2 90.155 4.815c5.461 3.926 8.746 6.102 9.856 6.528Zm29.568-3.84c-4.011 3.67-8.064 6.912-12.16 9.728-2.048-4.949-4.48-7.808-7.296-8.576-.768-.341-2.134 0-4.096 1.024-.854.512-1.366 1.323-1.536 2.432a218 218 0 0 1-.512 2.944l-.256 25.472c.085.256.042 1.024-.128 2.304-.086.939.128 1.622.64 2.048h10.496l1.152-1.152c.597-1.706 1.621-4.224 3.072-7.552.341-.085.597 0 .768.256-1.024 2.987-3.414 8.875-7.168 17.664-.342.086-.512.427-.512 1.024.085.512-.043.811-.384.896l-7.936.384-.384.512c-.171 2.56-.256 7.894-.256 16 .085 6.656-.256 11.99-1.024 16-1.28 4.011-3.584 7.382-6.912 10.112-3.499 2.987-7.254 4.48-11.264 4.48-4.864 0-9.814-2.517-14.848-7.552 0 .086-.768.811-2.304 2.176-.171.427-.256.683-.256.768.597 0 .981.299 1.152.896.085.427.042.896-.128 1.408-.598.768-1.408.939-2.432.512-.427-.682-.598-1.408-.512-2.176 1.28-1.877 3.157-4.01 5.632-6.4a5413.6 5413.6 0 0 1 6.528-6.016c.597-.256 1.024-.085 1.28.512.341.854.597 1.323.768 1.408 3.669 4.182 6.954 6.4 9.856 6.656 1.28 0 2.986-.426 5.12-1.28 4.181-1.621 6.741-4.309 7.68-8.064.426-4.693.682-10.538.768-17.536l.256-17.664c-.171-.085-.299-.384-.384-.896l.384-.384.768-33.024c0-1.536.213-3.84.64-6.912.341-.426.682-1.066 1.024-1.92 2.986-4.522 6.741-6.613 11.264-6.272 3.669.171 7.253 2.304 10.752 6.4.341.086.725-.085 1.152-.512.426-.512.768-.768 1.024-.768.17 0 .341.043.512.128v.512Zm-28.928 6.784c-.342 1.963-.726 4.95-1.152 8.96l-.128 25.856c0 5.803-.299 14.464-.896 25.984-.512 2.902-1.792 5.59-3.84 8.064-2.048 2.39-4.48 4.011-7.296 4.864 0-.512.512-.981 1.536-1.408 1.024-.426 1.664-.81 1.92-1.152 2.901-2.218 4.949-4.736 6.144-7.552.085-.17.512-2.56 1.28-7.168l.128-19.2c0-6.229.128-15.786.384-28.672.085-2.474.554-5.29 1.408-8.448.085.086.17.086.256 0 .085-.085.17-.128.256-.128Zm-14.72 33.664c0 .171-.043.384-.128.64-.598-.17-1.707-1.152-3.328-2.944 0-.256.128-.512.384-.768l3.072 3.072Zm-1.024 2.816c-.086.427-.512.982-1.28 1.664-.683.598-1.067 1.11-1.152 1.536-.512.342-1.067.726-1.664 1.152-.512.427-.64.939-.384 1.536 2.304 2.134 3.456 4.864 3.456 8.192a10.74 10.74 0 0 1-.896 4.352c-1.28 3.072-3.798 4.992-7.552 5.76l-2.56-.256c2.73-1.706 4.096-3.712 4.096-6.016.085-2.304-.982-4.266-3.2-5.888-.086 0-.342-.042-.768-.128-.342-.085-.47-.298-.384-.64 1.28-1.109 3.029-2.901 5.248-5.376-.086-.085-1.707-1.92-4.864-5.504 0-.512.298-1.024.896-1.536.938-.682 1.45-1.066 1.536-1.152l2.432-2.56c-2.134-2.645-3.2-5.546-3.2-8.704 0-1.536.256-2.986.768-4.352.597-1.45 1.792-2.73 3.584-3.84l4.608-2.56h.64c.085.342-.214.811-.896 1.408-.683.512-1.067.939-1.152 1.28-.768 1.195-1.152 2.56-1.152 4.096s.384 2.902 1.152 4.096c.085.512.512 1.067 1.28 1.664.768.598 1.194 1.152 1.28 1.664l-4.352 4.224v.64a2462.22 2462.22 0 0 1 4.48 5.248Zm0 9.472c-.427 0-.768-.298-1.024-.896-.256-.682-.427-1.066-.512-1.152l-1.024-.768c-.256-.341-.299-.682-.128-1.024.085-.085.554.171 1.408.768.597.768 1.024 1.707 1.28 2.816v.256ZM98.09 89.807c0 .171-.512.768-1.536 1.792-.683.342-1.75.939-3.2 1.792a7.069 7.069 0 0 1-3.2.768c-2.646 0-5.248-1.152-7.808-3.456l-4.48-4.992v-.64h.512a266.216 266.216 0 0 1 4.608 4.992c1.962 1.792 3.84 2.816 5.632 3.072 2.645.256 5.589-.853 8.832-3.328h.64Zm23.04-83.072c-.256-.682-1.536-1.706-3.84-3.072-2.731-.512-4.395-.512-4.992 0l3.328-.256c.682 0 1.45.342 2.304 1.024-4.096.512-6.827.555-8.192.128-.683.427-1.451 1.195-2.304 2.304 3.072.086 7.637.043 13.696-.128Zm1.152 2.176c.341-.682.256-1.109-.256-1.28l-.384.384c-2.048-.085-4.992 0-8.832.256.426.342 1.066.939 1.92 1.792l4.096.128c1.621 0 2.773-.426 3.456-1.28Zm-3.328 2.432h-2.816l-.128.512c.426.939.853 1.366 1.28 1.28.938-.682 1.493-1.28 1.664-1.792ZM95.531 10.32c-1.024-.512-2.774-1.877-5.248-4.096-2.048-1.792-3.883-2.858-5.504-3.2-.086.683.384 1.067 1.408 1.152 1.024.086 1.621.342 1.792.768-.342.086-.854.299-1.536.64-.086.939.17 1.536.768 1.792.341.086 1.024.086 2.048 0 1.024-.085 1.749-.042 2.176.128.768.171.938.512.512 1.024l-4.608.256c-.086.768.085 1.408.512 1.92l7.168-.128.512-.256Zm-.768 1.536h-6.784l-.256.128c-.086.512-.043 1.195.128 2.048h5.888c.938-.256 1.28-.981 1.024-2.176Zm-.768 3.456c-.939-.17-3.03-.128-6.272.128-.086.427-.043 1.024.128 1.792h5.504c.341-.341.554-.981.64-1.92Zm-.768 3.2c-.256.086-1.366.043-3.328-.128-1.536-.085-2.304.256-2.304 1.024 0 .342.085.726.256 1.152h4.736c.853-.085 1.066-.768.64-2.048Zm-.256 5.12v-1.664c.085 0-1.664.043-5.248.128-.086.427-.043 1.024.128 1.792l5.12-.256Zm0 3.328c.17-1.024.128-1.621-.128-1.792H87.85l-.128 1.92c1.194.086 2.944.043 5.248-.128Zm18.176 19.2c-1.451 0-3.712-.042-6.784-.128-.171.427-.299.598-.384.512h6.656l.512-.384ZM92.971 28.495l-4.48-.128c-.427 0-.683.256-.768.768-.086.427-.043.854.128 1.28h3.84c.597.171 1.024.043 1.28-.384.085-.341.085-.853 0-1.536Zm17.536 19.328c-1.536-.085-3.755 0-6.656.256-.171 1.024-.128 1.622.128 1.792l6.144-.256c.256-.256.384-.853.384-1.792ZM92.971 33.36c.085-.341.042-.853-.128-1.536-1.195-.085-2.902-.042-5.12.128-.086.427-.043 1.024.128 1.792 1.194.086 2.901-.042 5.12-.384Zm16.384 17.792c-1.195.086-3.03.086-5.504 0v1.92l4.736-.128c.512-.597.768-1.194.768-1.792ZM92.971 35.28l-.256-.256c-1.195-.085-2.859 0-4.992.256-.086.427-.043.982.128 1.664l4.992-.128.128-1.536Zm14.848 19.584v-.256a18.784 18.784 0 0 0-2.048-.128c-.598 0-1.238.043-1.92.128v.256a6.945 6.945 0 0 0 1.92.256 8.42 8.42 0 0 0 2.048-.256ZM92.843 40.015V38.48H87.85c-.256.683-.256 1.323 0 1.92.768 0 2.432-.128 4.992-.384Zm-13.696-9.984c-.171-.085-.299 0-.384.256v.128l.384-.384Zm13.568 13.44v-1.664c-1.11 0-2.731-.042-4.864-.128-.086.086-.086.726 0 1.92l4.864-.128ZM78.379 32.08a2.107 2.107 0 0 0-.64-.128c-.939 0-1.408.64-1.408 1.92h1.664c.512-.682.64-1.28.384-1.792Zm14.464 13.184c-1.024-.085-2.518-.213-4.48-.384-.342 0-.555.086-.64.256-.086.171-.128.47-.128.896.085.427.128.683.128.768.256 0 .554.043.896.128.341-.17.981-.213 1.92-.128.938.086 1.578.086 1.92 0 .512-.17.64-.682.384-1.536Zm-.128 3.072c-1.024.086-2.646.086-4.864 0-.256.512-.256 1.152 0 1.92l4.736-.128.128-1.792Zm-14.08-11.264v-.64c.17-.597.085-.938-.256-1.024-.256-.085-.683-.128-1.28-.128-.598.086-1.024.086-1.28 0-.256.512-.342 1.11-.256 1.792h3.072Zm1.28 3.328-.896-1.92-3.456.256.256 1.408c.853.427 2.218.512 4.096.256Zm12.672 11.136H87.85l-.128.128c-.342.854-.299 1.451.128 1.792h4.48c.426-.341.512-.981.256-1.92Zm-11.392-8.704c.341-.426.17-.938-.512-1.536l-.256.512-3.84.128c.085.512.512 1.11 1.28 1.792 1.621.256 2.73-.042 3.328-.896Zm11.392 13.824v-1.792c-1.024 0-2.56-.042-4.608-.128-.512.171-.598.811-.256 1.92h4.864Zm0 3.328v-1.792l-4.864.128c-.256.683-.214 1.28.128 1.792 1.109 0 2.688-.042 4.736-.128Zm-12.8-9.728c-.427-.682-1.195-1.45-2.304-2.304-.939.512-1.75 1.323-2.432 2.432 1.109.086 2.688.043 4.736-.128Zm12.8 12.928v-1.792H87.85c-.427.512-.47 1.152-.128 1.92l4.864-.128ZM81.835 52.815c.085-.341-.299-.81-1.152-1.408-1.195 0-3.072.128-5.632.384.256.427.768 1.024 1.536 1.792-.086 0 .853.043 2.816.128 1.109 0 1.92-.298 2.432-.896Zm10.752 13.568c0-.426-.086-1.024-.256-1.792h-4.48l-.128.128c-.342 1.024-.299 1.707.128 2.048 1.109.086 2.688-.042 4.736-.384ZM79.403 55.12c-.256-.085-.683-.17-1.28-.256-.086.086.042.384.384.896.256-.085.554-.298.896-.64ZM92.587 69.2c0-.938-.427-1.408-1.28-1.408-.171 0-.768.086-1.792.256-.768.086-1.323.086-1.664 0-.427.342-.47.982-.128 1.92h4.48c.256-.17.384-.426.384-.768Zm-.256 3.84c.085-.426.042-1.024-.128-1.792-.256.086-1.238.043-2.944-.128-1.28-.085-1.92.256-1.92 1.024 0 .256.042.598.128 1.024.17 0 1.792-.042 4.864-.128Zm-13.824-12.8c-.342-.341-.854-.682-1.536-1.024-.427.598-.64.939-.64 1.024h2.176Zm1.92 3.072v-.128c-.598-1.28-1.152-1.877-1.664-1.792-1.024-.085-2.475.086-4.352.512.426 1.024 1.322 1.579 2.688 1.664-2.219-.17-1.11-.256 3.328-.256Zm11.648 11.392c-.854.086-2.304.086-4.352 0-.427.342-.512.982-.256 1.92h3.968c.768-.426.981-1.066.64-1.92Zm-10.88-7.936c.256-1.024.085-1.749-.512-2.176l-3.328.384v.512c0 .683.256 1.152.768 1.408.256.086.768.086 1.536 0 .853-.17 1.365-.213 1.536-.128Zm-.128 1.408h-2.944l-.128 1.92 2.688-.128c.597-.768.725-1.365.384-1.792Zm10.24 9.728h-2.688c-1.11-.085-1.664.214-1.664.896 0 .256.085.598.256 1.024l3.584-.128.512-1.792Zm-1.792 3.968c.085-.426-.043-.682-.384-.768-.171 0-.555.086-1.152.256-.512.086-.854.171-1.024.256-.086 0-.256.171-.512.512-.171.342-.171.64 0 .896h1.792c.597-.17 1.024-.554 1.28-1.152Zm-10.112-10.24c-.342-.085-.939-.17-1.792-.256-.854.939-1.28 1.664-1.28 2.176.853.171 1.877-.469 3.072-1.92Zm7.168 13.056a4.954 4.954 0 0 1-.64-.256c-.171 0-.384.256-.64.768-.171.427-.342.683-.512.768.512-.17 1.109-.597 1.792-1.28Zm8.448 12.416c-2.048 1.11-4.31 1.664-6.784 1.664-2.56 0-4.779-.597-6.656-1.792v.512l-8.448.256c0 .086.682.726 2.048 1.92.17.086 6.101 0 17.792-.256l1.792-1.28c.085-.682.17-1.024.256-1.024ZM76.97 92.88l-1.92-1.92c-1.451.256-2.347 1.024-2.688 2.304 1.109.086 2.645-.042 4.608-.384Zm13.056 7.936c-2.816-.085-6.784.043-11.904.384 1.45.939 3.285 1.408 5.504 1.408 2.56 0 4.693-.597 6.4-1.792Zm-9.6-4.608-2.432-2.176-.384.384h-6.912l-.64.512c-.086.342.341.854 1.28 1.536 2.133.086 5.162 0 9.088-.256Z"/></svg>