<svg xmlns="http://www.w3.org/2000/svg" version="1.1" xmlns:xlink="http://www.w3.org/1999/xlink" xmlns:svgjs="http://svgjs.com/svgjs" width="1173" height="1024"><svg xmlns="http://www.w3.org/2000/svg" width="1173" height="1024" style="shape-rendering:geometricPrecision;text-rendering:geometricPrecision;image-rendering:optimizeQuality;fill-rule:evenodd;clip-rule:evenodd"><path fill="#ee1c23" d="M578.5-.5h15c11.232 5.397 19.732 13.73 25.5 25a637839.178 637839.178 0 0 0 537 929c6.61 10.545 12.11 21.545 16.5 33v16c-4.78 11.73-13.45 18.73-26 21H25.5c-12.548-2.26-21.215-9.26-26-21v-16c3.312-8.961 7.479-17.628 12.5-26a664096.759 664096.759 0 0 1 548-947c4.956-6.48 11.123-11.147 18.5-14Z" style="opacity:.998"></path><path fill="#fefefe" d="M983.5 900.5c-265 1.333-530 1.333-795 0a12833795.92 12833795.92 0 0 0 397.5-687 12833795.92 12833795.92 0 0 0 397.5 687Z" style="opacity:1"></path><path fill="#010101" d="M577.5 374.5c32.098-1.385 52.598 13.282 61.5 44l.5 13.5A57468.093 57468.093 0 0 0 624 685.5c-4.188 21.688-17.355 33.021-39.5 34-20.619-2.115-32.786-13.449-36.5-34a485620.84 485620.84 0 0 1-15.5-253c.142-30.983 15.142-50.317 45-58Zm-3 378c28.343-3.25 48.843 7.75 61.5 33 8.209 27.037 1.043 48.871-21.5 65.5-28.101 14.227-52.268 9.394-72.5-14.5-13.572-22.734-12.572-44.734 3-66 8.256-8.706 18.089-14.706 29.5-18Z" style="opacity:1"></path><path fill="#ee2a31" d="M188.5 900.5c265 1.333 530 1.333 795 0 .543.06.876.393 1 1a79421.48 79421.48 0 0 1-797 0c.124-.607.457-.94 1-1Z" style="opacity:1"></path></svg><style>@media (prefers-color-scheme: light) { :root { filter: none; } }
</style></svg>