<svg xmlns="http://www.w3.org/2000/svg" width="1173" height="1024"><svg xmlns="http://www.w3.org/2000/svg" width="1173" height="1024" style="shape-rendering:geometricPrecision;text-rendering:geometricPrecision;image-rendering:optimizeQuality;fill-rule:evenodd;clip-rule:evenodd"><path fill="#ee1c23" d="M578.5-.5h15q16.848 8.095 25.5 25a637839 637839 0 0 0 537 929q9.915 15.817 16.5 33v16c-4.78 11.73-13.45 18.73-26 21H25.5q-18.822-3.39-26-21v-16q4.968-13.442 12.5-26a664097 664097 0 0 1 548-947q7.434-9.72 18.5-14" style="opacity:.998"/><path fill="#fefefe" d="M983.5 900.5q-397.5 2-795 0a12833796 12833796 0 0 0 397.5-687 12833796 12833796 0 0 0 397.5 687" style="opacity:1"/><path fill="#010101" d="M577.5 374.5q48.147-2.077 61.5 44l.5 13.5A57468 57468 0 0 0 624 685.5q-6.282 32.532-39.5 34-30.929-3.173-36.5-34a485621 485621 0 0 1-15.5-253q.213-46.475 45-58m-3 378q42.515-4.875 61.5 33 12.314 40.556-21.5 65.5-42.152 21.34-72.5-14.5-20.358-34.101 3-66 12.384-13.059 29.5-18" style="opacity:1"/><path fill="#ee2a31" d="M188.5 900.5q397.5 2 795 0 .814.09 1 1a79422 79422 0 0 1-797 0q.186-.91 1-1" style="opacity:1"/></svg><style>@media (prefers-color-scheme:light){:root{filter:none}}</style></svg>