<svg xmlns="http://www.w3.org/2000/svg" width="301" height="301" fill="none"><rect width="300" height="300" x=".796" y=".977" fill="#fff" rx="50"/><path fill="#000" d="M123.078 79.351c-3.334-.666-6.417-2.166-9.25-4.5l.5-.5 8.75 4.5v.5Zm-10-5-.25.25c-6-2.833-12.75-10.416-20.25-22.75h1c2.833 3.834 5.75 7.834 8.75 12 3.166 4.167 6.583 7.25 10.25 9.25 0 .167.166.584.5 1.25Zm37.75 106.75c.5 3 .75 6 .75 9 0 11.167-3.084 22.667-9.25 34.5-.667 1.334-1.917 2.334-3.75 3 1.5-2.333 3.416-5.833 5.75-10.5 3.833-8.833 5.75-18 5.75-27.5 0-10.5-2.5-19.25-7.5-26.25-6.5-12.5-19.75-24.666-39.75-36.5-.834.667-1.334 1.5-1.5 2.5 14.166 10 24.666 19.334 31.5 28 9.5 12.167 13.833 25.084 13 38.75-.667 11.834-4.834 23-12.5 33.5-7.667 10.5-17.084 17.334-28.25 20.5-6 1.667-14.25 2.167-24.75 1.5-5.834-1.666-14.167-4.666-25-9l-1.75-.25c-4.834-2.666-9.917-4.5-15.25-5.5l-6.75-.25v-1.75c9.333-15.333 14-27.416 14-36.25 0-4.833-1-9.5-3-14-1.334-2.5-2.834-6.416-4.5-11.75h1.25c5.166 4.167 8.916 10.667 11.25 19.5 3.5 13.167 5.583 20.417 6.25 21.75l9 9c-.167 1-.667 2.667-1.5 5-.834 2.167-1.25 3.834-1.25 5 0 1.334.416 2.584 1.25 3.75 1.666 3.667 4 6.25 7 7.75-1-1.833-2.084-4.75-3.25-8.75-.334-4.333 1-8.166 4-11.5-4.334-4.166-7.417-7.25-9.25-9.25-3.167-4-4.917-7.833-5.25-11.5-2.834-11.666-7.75-21.416-14.75-29.25 0-.5.083-.833.25-1 5 3.834 9 9.5 12 17l6.5 20c2.333 3.667 6.5 8 12.5 13l-3.75 6.75c-.667 1.334-1 2.667-1 4 0 2.667 1.75 6.167 5.25 10.5-.334.334-.5.75-.5 1.25 0 .334 1.333 1.417 4 3.25a27.477 27.477 0 0 0 8.25 1.25c6.166 0 15-3.166 26.5-9.5 12.333-8.833 18.5-21.083 18.5-36.75 0-2.5-.167-4.916-.5-7.25-1.334-10.333-6.584-20.166-15.75-29.5-4.5-4.333-13.584-11.5-27.25-21.5-.834.167-1.75 1.084-2.75 2.75v1.5l23.5 19c9 8 14.333 16.167 16 24.5.666 3.167 1 6.25 1 9.25 0 14.167-5.5 25.167-16.5 33l-10 7c-.167 0-.667-.416-1.5-1.25v-.75c9.333-7.666 14-17.083 14-28.25 0-1.5-.084-3-.25-4.5-1.667-7.333-6.417-14.416-14.25-21.25a2287.108 2287.108 0 0 0-20.75-17c-.834-.666-2.334-1.5-4.5-2.5-6 9.334-9 18-9 26 0 4.5 1.166 8.667 3.5 12.5 2.333 3.834 5.583 6.334 9.75 7.5 2.333.834 4.666.75 7-.25 2.333-1.166 3.916-2.916 4.75-5.25.666-1.666.916-3.75.75-6.25a18.87 18.87 0 0 0-1.75-2c-.5-.833-1.25-1-2.25-.5-.167 1.334-1 3-2.5 5-.834.834-2.667.667-5.5-.5-.834-.666-1-2.5-.5-5.5.666-1.333 2.75-2.5 6.25-3.5 1.333 0 3.083.5 5.25 1.5 1.833 2.334 2.75 5 2.75 8 0 2-.417 3.834-1.25 5.5-1.167 2.667-3.667 4.584-7.5 5.75-5.834.834-11-1.5-15.5-7-3.334-4.166-5-9.166-5-15 0-7.5 3-16.5 9-27v-1.25c-22.5-16.5-33.75-32.833-33.75-49 0-3.5.416-7 1.25-10.5 2-7 6.5-13.75 13.5-20.25 3.5-3.166 10.083-8.083 19.75-14.75l16.5-16.5h.5c4.666 6.5 8.666 11.584 12 15.25 6.5 7.334 16.666 12.167 30.5 14.5 2.666-4 2.666-8.5 0-13.5-.667-1.333-2.25-2.833-4.75-4.5-.834.167-1.834.834-3 2 .5.667.916 1.917 1.25 3.75-.834.5-1.75.417-2.75-.25-1.667-1-2.5-1.583-2.5-1.75 0-.333-.084-1-.25-2 1.333-.666 2.583-1.666 3.75-3 0-.166-.75-.333-2.25-.5 0-.833.416-1.333 1.25-1.5a49.179 49.179 0 0 0 2.25-.5c2.166-.166 4.083.834 5.75 3a106.47 106.47 0 0 0 3.75 5.5 21.404 21.404 0 0 1 1.25 7.25c0 4.834-3.25 12.417-9.75 22.75-1.834 3-5.167 7.25-10 12.75-4.834 5.334-8.084 9.25-9.75 11.75 12 8.5 20.083 14.75 24.25 18.75 8.833 7.834 14.833 15.917 18 24.25.166.667 1 2.75 2.5 6.25 1.166 2.5 1.666 4.75 1.5 6.75Zm-24.75-86.75c.5-1.833-.25-2.916-2.25-3.25-3.167-.5-4.917-.916-5.25-1.25l-1.25 1.25h-16.75c2 2.5 5.416 3.834 10.25 4 3.833.167 7.75.25 11.75.25.833.334 2 0 3.5-1Zm-3.5 3.25c-2-.166-4.75.084-8.25.75 4.666 1.5 7.083 2.25 7.25 2.25 1.333-1.166 1.666-2.166 1-3Zm-9-9.25-11.5-5.75.25 1.5-11.5.5c1 .667 2.5 1.917 4.5 3.75h18.25Zm-12.5-6.5c-3.834-2.333-9.834-8.5-18-18.5l-.75 1.25c-2-.166-3.584 1-4.75 3.5.333.167 3.25.417 8.75.75 1.5.334 2 .917 1.5 1.75-.167.167-3 .417-8.5.75.333 2.834 2.166 4.167 5.5 4 4.666-.166 7.25-.083 7.75.25l.75.5c.333 1 .333 1.584 0 1.75-2.167-.166-5.25-.083-9.25.25 1 2.834 3.416 4.167 7.25 4l9.75-.25Zm18.25 21.25c-21.667-8.833-36.167-19.333-43.5-31.5l-2-.25c-5 4-11.25 9.917-18.75 17.75-3.5 5.167-4.584 12.917-3.25 23.25 1.166 9.334 7.333 18 18.5 26 2.666 2.334 6.666 5.417 12 9.25l2.75-3.5c-9.167-6.666-16.834-13.166-23-19.5-5.5-5.5-8.25-12.083-8.25-19.75 0-3.166.583-6.333 1.75-9.5 1.333-3.333 3.666-6.333 7-9 3.5-2.666 7-4.166 10.5-4.5v1c-3 3-4.667 7.417-5 13.25.666 8 5.333 14.834 14 20.5 3.833 2.5 9.5 6.084 17 10.75.833-1.333 1.25-2.083 1.25-2.25l-15.5-11.5c-6.5-4.666-10.834-9.5-13-14.5-2-4.666-1.667-9.25 1-13.75.333 0 .75.167 1.25.5-.667 2.167-1 4.334-1 6.5 0 6.167 3.333 12.084 10 17.75 6 4.167 12 8.417 18 12.75l1.5.25c4-4.166 9.583-10.833 16.75-20Zm-55.75-12.5c-1.5-.333-2.75.834-3.75 3.5l2.75.25c.833-1 1.166-2.25 1-3.75Zm-1.25 11.25c0-1.333-.084-3.083-.25-5.25a26.25 26.25 0 0 0-3.5.75c-1 .334-1.5 1.167-1.5 2.5 1.333 0 3.083.667 5.25 2Zm-14-10.25c-.167.334-.584.667-1.25 1-.5.334-.667.834-.5 1.5.666 0 1.083-.416 1.25-1.25.166-.833.333-1.25.5-1.25Zm-2.25 5h-1.5c-.667.167-1.167.75-1.5 1.75-.167 1-.334 1.584-.5 1.75.5 0 1.166.25 2 .75l1.5-4.25Zm90.5 103.5c.333-2.166.5-4.333.5-6.5 0-8.833-3.167-18.833-9.5-30-1.334-1.5-3-3.666-5-6.5-3.334-2.666-8.167-6.583-14.5-11.75-9.334-6.333-22.917-16.666-40.75-31-2.334-3.666-4-7.666-5-12-.5.834-1.5 1.25-3 1.25-1.5-.166-2.417-.166-2.75 0-.334.834-.5 1.5-.5 2 0 1.334 1.166 1.917 3.5 1.75 2.333-.166 3.75.25 4.25 1.25-.334 1.167-1.25 1.667-2.75 1.5-2-.333-3.334-.333-4 0-.167 1 .333 2.167 1.5 3.5.5.167 2.25.25 5.25.25 2.333 0 3.75.667 4.25 2-1.834 0-4.584.334-8.25 1 .666 2.5 2.583 3.75 5.75 3.75l8.25-.25 1 1c.333.167.5.417.5.75 0 .334-.167.584-.5.75l-10.25.25c1.166 2.834 3.833 4.25 8 4.25 6.666-.166 9.916-.25 9.75-.25l2 1.75c-1.334.667-3.417.917-6.25.75-3-.333-5.167-.333-6.5 0 0 .167 1.083 1.334 3.25 3.5l16.25.25c1.5 1.667 2.25 2.417 2.25 2.25-.167.167-4.75.334-13.75.5.166.834.75 1.584 1.75 2.25 1 .5 1.916 1 2.75 1.5l16.25.25 2 2-.75.75-12-.5-1 .75c1.833 2 3.416 3.167 4.75 3.5l16 .25c1.166.667 1.666 1.334 1.5 2l-13.75.5c1.666 2.834 4.75 4.25 9.25 4.25l11.25-.25 1.25 1.75c-2.834 0-7.167.334-13 1 1.333 2.667 3.916 3.917 7.75 3.75l9.75-.25 1 .75c.833.834.75 1.5-.25 2l-10 .25c1.166 2.5 3.083 3.834 5.75 4l7.5-.5 1.5 1c.166.334.083.834-.25 1.5-1.834 0-4.5.167-8 .5l2.5 3.5c2.166-.333 5.166.084 9 1.25-.167.834-1.084 1.25-2.75 1.25-2.167 0-3.5.084-4 .25l1.5 3.5c.5.167 2 .25 4.5.25 2 0 3.083.667 3.25 2l-5.75.75c-.334 2 .416 3.167 2.25 3.5 3 .667 4.583 1.084 4.75 1.25.166.834 0 1.334-.5 1.5-.334.167-1 .167-2 0-1 0-1.667.167-2 .5v.75c-.167 1.5.583 2.417 2.25 2.75 1.833.334 2.833.917 3 1.75-.167.834-.75 1.25-1.75 1.25-1-.166-1.584-.083-1.75.25.166.5.25 1.5.25 3 .833 0 1.916.417 3.25 1.25 0 .5-1 1.167-3 2-.667 2.334.25 3.75 2.75 4.25.666-1.666.75-3.583.25-5.75Zm-.25 7c-2.167.334-3.167 1.584-3 3.75.333.334.833.75 1.5 1.25 1.166-1.166 1.666-2.833 1.5-5Zm-19.25-1.75c.333 1.167-.084 1.834-1.25 2-1.167.167-1.834.417-2 .75 0 .167.166 1.25.5 3.25 1.333.5 2 .917 2 1.25 0 .167-.5.667-1.5 1.5-1 .667-1.5 1.417-1.5 2.25 0 .334.166.75.5 1.25.833.834 1.5.75 2-.25 1-4.666 1.5-9.083 1.5-13.25 0-8.5-2.167-15.333-6.5-20.5-5.334-6.333-12.584-13.083-21.75-20.25a2170.483 2170.483 0 0 1-23.5-17.75c-14.667-11.666-22-24.25-22-37.75 0-1.666.166-3.416.5-5.25-.667.167-1.5.334-2.5.5-1.667.834-2.167 2.084-1.5 3.75 1-.166 2.083.084 3.25.75.333 1 .166 1.584-.5 1.75-.334.167-1 .167-2 0-1 0-1.667.167-2 .5v3.5c1.333-.166 3 0 5 .5.166 1.334-.25 2.084-1.25 2.25h-3c-1.167.167-1.584.917-1.25 2.25 0 1.167 1.166 1.584 3.5 1.25.166.334 1 .5 2.5.5 1 0 1.416.5 1.25 1.5-.5.667-1.667 1-3.5 1-1.667 0-2.75.084-3.25.25-.167 2 .5 3.167 2 3.5h4.5c1.833 0 2.916.667 3.25 2-1.667 0-4.167.334-7.5 1v.5c.5 2.167 2.833 3.25 7 3.25 2.666 0 4.416.584 5.25 1.75-1 .667-2.417.917-4.25.75-2.334-.333-3.917-.333-4.75 0 .333 2.834 2.083 4.25 5.25 4.25 5.666-.166 8.416-.25 8.25-.25l2 1.75-.75.75-10.25.25c.333 1 1.333 2.167 3 3.5l14 .5 1.25 1.25c.166.334-.084.75-.75 1.25-2.334-.166-6-.25-11-.25l-.75.5c.666.834 1.833 1.917 3.5 3.25l15.5.25 1.25 1c.5.667.416 1.167-.25 1.5h-12.5c0 .167 1.333 1.5 4 4h15.5l2.25 1.75-.75.75-13 .25 3.75 3.5 16.25.5 2 1.75-.75.75c-3.167-.333-7.5-.25-13 .25 1.666 2.667 4.75 3.917 9.25 3.75 6.5-.166 10.083-.083 10.75.25 1.333.5 1.916 1.084 1.75 1.75-3 0-7.5.25-13.5.75 1.666 2.5 4.5 3.834 8.5 4a201.02 201.02 0 0 1 10-.25c1.666.334 2.333 1.084 2 2.25l-12.25.25c1.166 2.834 3.583 4.25 7.25 4.25 5.5-.166 8.583-.166 9.25 0l1 1c0 .334-.25.75-.75 1.25-2.167-.166-5.25-.083-9.25.25.833 2.334 2.583 3.667 5.25 4h6.75c.333.667.5 1.167.5 1.5 0 .667-.417 1-1.25 1-.334 0-.917-.083-1.75-.25-.834-.166-1.417-.25-1.75-.25-1 0-1.667.25-2 .75l.5.75c.166 1.834 1.25 2.75 3.25 2.75 2.833.167 4.5.417 5 .75.166 1-.084 1.667-.75 2h-2.25c-1-.166-1.667 0-2 .5l.5.25c-.5 1.5-.084 2.417 1.25 2.75 2.166.5 3.333.75 3.5.75Zm17.5 8.75c-.667-.166-1.167.084-1.5.75-.334 2.167-.417 3.334-.25 3.5l1.75-4.25Zm-20.5 6.5c-.667-.166-1.084.25-1.25 1.25 0 .834-.084 1.334-.25 1.5l1.5-2.75Zm-57.25 20c-.667-3.166-.75-7.916-.25-14.25-2-2.5-4.084-5-6.25-7.5-2-2.666-3.167-5.333-3.5-8 .166.834-.25 1.834-1.25 3-.834 1-1.25 1.917-1.25 2.75.333.167 1.333.25 3 .25 1.166 0 1.916.584 2.25 1.75-1.834 0-4.084.417-6.75 1.25-1.334 1.5-1.75 2.584-1.25 3.25 2.5 0 6.333.084 11.5.25l1 1c.333.667.166 1.167-.5 1.5-.667.334-1.5.5-2.5.5s-2.5-.083-4.5-.25c-1.834-.333-3.167-.5-4-.5-2.834 0-4.334 1.25-4.5 3.75 3.833 0 9.583.334 17.25 1 .166.5-.167 1.167-1 2l-18.25-.25c-1.167 1-1.5 1.75-1 2.25 11.666 1.334 18.25 1.917 19.75 1.75l.75.75c.833 1.334.166 2.084-2 2.25.5.834 1.583 1.334 3.25 1.5Zm230.976-172.25c-5.166 4.5-13.166 10.917-24 19.25-.166-.166-.25-.5-.25-1 5.167-4.666 13.167-11.25 24-19.75l.25.5v1Zm-58.5-1.75c-1.833.167-3.833-.25-6-1.25-2-1.166-4-2.25-6-3.25l-10-7.25.25-.75c2.334 1.5 5.834 3.667 10.5 6.5 2.5 1.167 6.25 3 11.25 5.5v.5Zm40.5 56c-3.166 8.167-8.25 20.167-15.25 36l-1-.75c2.834-6.166 6.667-15.75 11.5-28.75.667-1.833 2-4.5 4-8h.75v1.5Zm-71.5.5c-.833.167-2.083-1-3.75-3.5-2-5-2-8.75 0-11.25l1.25 1c-.833 1-1.25 2.25-1.25 3.75 0 2.167.75 4.5 2.25 7 1.167 1.334 1.667 2.334 1.5 3Zm28.5-51.5c.334.667.167 1.25-.5 1.75l-1.5 1.5c-2.666 4.5-4 12.584-4 24.25l-.25 84.75c-1.166 8.834-2.333 14.917-3.5 18.25-2.166 6.334-5.75 11.084-10.75 14.25-4.333 2.667-8.583 4.25-12.75 4.75-.833-.666-.916-1.583-.25-2.75 4.167-4.5 6.417-11.25 6.75-20.25 0-7.333.084-14.75.25-22.25v-12.5c-.333-.333-.5-.666-.5-1 0-.333.167-.666.5-1v-17.25l.25-56.5c0-1.166.084-3.166.25-6v-6c0-10-2.75-16.75-8.25-20.25-1.833-.833-3.916-1.416-6.25-1.75l-.25-1.5c7-1 14.167 1.25 21.5 6.75 10.667 7.667 17.084 11.917 19.25 12.75Zm57.75-7.5c-7.833 7.167-15.75 13.5-23.75 19-4-9.666-8.75-15.25-14.25-16.75-1.5-.666-4.166 0-8 2-1.666 1-2.666 2.584-3 4.75a384.1 384.1 0 0 1-1 5.75l-.5 49.75c.167.5.084 2-.25 4.5-.166 1.834.25 3.167 1.25 4h20.5l2.25-2.25c1.167-3.333 3.167-8.25 6-14.75.667-.166 1.167 0 1.5.5-2 5.834-6.666 17.334-14 34.5-.666.167-1 .834-1 2 .167 1-.083 1.584-.75 1.75l-15.5.75-.75 1c-.333 5-.5 15.417-.5 31.25.167 13-.5 23.417-2 31.25-2.5 7.834-7 14.417-13.5 19.75-6.833 5.834-14.166 8.75-22 8.75-9.5 0-19.166-4.916-29-14.75 0 .167-1.5 1.584-4.5 4.25-.333.834-.5 1.334-.5 1.5 1.167 0 1.917.584 2.25 1.75.167.834.084 1.75-.25 2.75-1.166 1.5-2.75 1.834-4.75 1-.833-1.333-1.166-2.75-1-4.25 2.5-3.666 6.167-7.833 11-12.5 4.334-4 8.584-7.916 12.75-11.75 1.167-.5 2-.166 2.5 1 .667 1.667 1.167 2.584 1.5 2.75 7.167 8.167 13.584 12.5 19.25 13 2.5 0 5.834-.833 10-2.5 8.167-3.166 13.167-8.416 15-15.75.834-9.166 1.334-20.583 1.5-34.25l.5-34.5c-.333-.166-.583-.75-.75-1.75l.75-.75 1.5-64.5c0-3 .417-7.5 1.25-13.5.667-.833 1.334-2.083 2-3.75 5.834-8.833 13.167-12.916 22-12.25 7.167.334 14.167 4.5 21 12.5.667.167 1.417-.166 2.25-1 .834-1 1.5-1.5 2-1.5.334 0 .667.084 1 .25v1Zm-56.5 13.25c-.666 3.834-1.416 9.667-2.25 17.5l-.25 50.5c0 11.334-.583 28.25-1.75 50.75-1 5.667-3.5 10.917-7.5 15.75-4 4.667-8.75 7.834-14.25 9.5 0-1 1-1.916 3-2.75 2-.833 3.25-1.583 3.75-2.25 5.667-4.333 9.667-9.25 12-14.75.167-.333 1-5 2.5-14l.25-37.5c0-12.166.25-30.833.75-56 .167-4.833 1.084-10.333 2.75-16.5.167.167.334.167.5 0 .167-.166.334-.25.5-.25Zm-28.75 65.75c0 .334-.083.75-.25 1.25-1.166-.333-3.333-2.25-6.5-5.75 0-.5.25-1 .75-1.5l6 6Zm-2 5.5c-.166.834-1 1.917-2.5 3.25-1.333 1.167-2.083 2.167-2.25 3-1 .667-2.083 1.417-3.25 2.25-1 .834-1.25 1.834-.75 3 4.5 4.167 6.75 9.5 6.75 16 0 3-.583 5.834-1.75 8.5-2.5 6-7.416 9.75-14.75 11.25l-5-.5c5.334-3.333 8-7.25 8-11.75.167-4.5-1.916-8.333-6.25-11.5-.166 0-.666-.083-1.5-.25-.666-.166-.916-.583-.75-1.25 2.5-2.166 5.917-5.666 10.25-10.5-.166-.166-3.333-3.75-9.5-10.75 0-1 .584-2 1.75-3 1.834-1.333 2.834-2.083 3-2.25l4.75-5c-4.166-5.166-6.25-10.833-6.25-17 0-3 .5-5.833 1.5-8.5 1.167-2.833 3.5-5.333 7-7.5l9-5h1.25c.167.667-.416 1.584-1.75 2.75-1.333 1-2.083 1.834-2.25 2.5-1.5 2.334-2.25 5-2.25 8s.75 5.667 2.25 8c.167 1 1 2.084 2.5 3.25 1.5 1.167 2.334 2.25 2.5 3.25l-8.5 8.25v1.25c2 2.334 4.917 5.75 8.75 10.25Zm0 18.5c-.833 0-1.5-.583-2-1.75-.5-1.333-.833-2.083-1-2.25l-2-1.5c-.5-.666-.583-1.333-.25-2 .167-.166 1.084.334 2.75 1.5 1.167 1.5 2 3.334 2.5 5.5v.5Zm25.75 57.75c0 .334-1 1.5-3 3.5-1.333.667-3.416 1.834-6.25 3.5-2 1-4.083 1.5-6.25 1.5-5.166 0-10.25-2.25-15.25-6.75l-8.75-9.75v-1.25h1c3 3.167 6 6.417 9 9.75 3.834 3.5 7.5 5.5 11 6 5.167.5 10.917-1.666 17.25-6.5h1.25Zm45-162.25c-.5-1.333-3-3.333-7.5-6-5.333-1-8.583-1-9.75 0l6.5-.5c1.334 0 2.834.667 4.5 2-8 1-13.333 1.084-16 .25-1.333.834-2.833 2.334-4.5 4.5 6 .167 14.917.084 26.75-.25Zm2.25 4.25c.667-1.333.5-2.166-.5-2.5l-.75.75c-4-.166-9.75 0-17.25.5.834.667 2.084 1.834 3.75 3.5l8 .25c3.167 0 5.417-.833 6.75-2.5Zm-6.5 4.75h-5.5l-.25 1c.834 1.834 1.667 2.667 2.5 2.5 1.834-1.333 2.917-2.5 3.25-3.5Zm-45.75-2c-2-1-5.416-3.666-10.25-8-4-3.5-7.583-5.583-10.75-6.25-.166 1.334.75 2.084 2.75 2.25 2 .167 3.167.667 3.5 1.5-.666.167-1.666.584-3 1.25-.166 1.834.334 3 1.5 3.5.667.167 2 .167 4 0 2-.166 3.417-.083 4.25.25 1.5.334 1.834 1 1 2l-9 .5c-.166 1.5.167 2.75 1 3.75l14-.25 1-.5Zm-1.5 3h-13.25l-.5.25c-.166 1-.083 2.334.25 4h11.5c1.834-.5 2.5-1.916 2-4.25Zm-1.5 6.75c-1.833-.333-5.916-.25-12.25.25-.166.834-.083 2 .25 3.5h10.75c.667-.666 1.084-1.916 1.25-3.75Zm-1.5 6.25c-.5.167-2.666.084-6.5-.25-3-.166-4.5.5-4.5 2 0 .667.167 1.417.5 2.25h9.25c1.667-.166 2.084-1.5 1.25-4Zm-.5 10v-3.25c.167 0-3.25.084-10.25.25-.166.834-.083 2 .25 3.5l10-.5Zm0 6.5c.334-2 .25-3.166-.25-3.5h-9.75l-.25 3.75c2.334.167 5.75.084 10.25-.25Zm35.5 37.5c-2.833 0-7.25-.083-13.25-.25-.333.834-.583 1.167-.75 1h13l1-.75Zm-35.5-34.5-8.75-.25c-.833 0-1.333.5-1.5 1.5-.166.834-.083 1.667.25 2.5h7.5c1.167.334 2 .084 2.5-.75.167-.666.167-1.666 0-3Zm34.25 37.75c-3-.166-7.333 0-13 .5-.333 2-.25 3.167.25 3.5l12-.5c.5-.5.75-1.666.75-3.5Zm-34.25-28.25c.167-.666.084-1.666-.25-3-2.333-.166-5.666-.083-10 .25-.166.834-.083 2 .25 3.5 2.334.167 5.667-.083 10-.75Zm32 34.75c-2.333.167-5.916.167-10.75 0v3.75l9.25-.25c1-1.166 1.5-2.333 1.5-3.5Zm-32-31-.5-.5c-2.333-.166-5.583 0-9.75.5-.166.834-.083 1.917.25 3.25l9.75-.25.25-3Zm29 38.25v-.5c-1.5-.166-2.833-.25-4-.25-1.166 0-2.416.084-3.75.25v.5c1.167.334 2.417.5 3.75.5 1.334 0 2.667-.166 4-.5Zm-29.25-29v-3h-9.75c-.5 1.334-.5 2.584 0 3.75 1.5 0 4.75-.25 9.75-.75Zm-26.75-19.5c-.333-.166-.583 0-.75.5v.25l.75-.75Zm26.5 26.25v-3.25c-2.166 0-5.333-.083-9.5-.25-.166.167-.166 1.417 0 3.75l9.5-.25Zm-28-22.25c-.5-.166-.916-.25-1.25-.25-1.833 0-2.75 1.25-2.75 3.75h3.25c1-1.333 1.25-2.5.75-3.5Zm28.25 25.75c-2-.166-4.916-.416-8.75-.75-.666 0-1.083.167-1.25.5-.166.334-.25.917-.25 1.75.167.834.25 1.334.25 1.5.5 0 1.084.084 1.75.25.667-.333 1.917-.416 3.75-.25 1.834.167 3.084.167 3.75 0 1-.333 1.25-1.333.75-3Zm-.25 6c-2 .167-5.166.167-9.5 0-.5 1-.5 2.25 0 3.75l9.25-.25.25-3.5Zm-27.5-22v-1.25c.334-1.166.167-1.833-.5-2-.5-.166-1.333-.25-2.5-.25-1.166.167-2 .167-2.5 0-.5 1-.666 2.167-.5 3.5h6Zm2.5 6.5-1.75-3.75-6.75.5.5 2.75c1.667.834 4.334 1 8 .5Zm24.75 21.75h-9.25l-.25.25c-.666 1.667-.583 2.834.25 3.5h8.75c.834-.666 1-1.916.5-3.75Zm-22.25-17c.667-.833.334-1.833-1-3l-.5 1-7.5.25c.167 1 1 2.167 2.5 3.5 3.167.5 5.334-.083 6.5-1.75Zm22.25 27v-3.5c-2 0-5-.083-9-.25-1 .334-1.166 1.584-.5 3.75h9.5Zm0 6.5v-3.5l-9.5.25c-.5 1.334-.416 2.5.25 3.5 2.167 0 5.25-.083 9.25-.25Zm-25-19c-.833-1.333-2.333-2.833-4.5-4.5-1.833 1-3.416 2.584-4.75 4.75 2.167.167 5.25.084 9.25-.25Zm25 25.25v-3.5h-9.25c-.833 1-.916 2.25-.25 3.75l9.5-.25Zm-21-20.25c.167-.666-.583-1.583-2.25-2.75-2.333 0-6 .25-11 .75.5.834 1.5 2 3 3.5-.166 0 1.667.084 5.5.25 2.167 0 3.75-.583 4.75-1.75Zm21 26.5c0-.833-.166-2-.5-3.5h-8.75l-.25.25c-.666 2-.583 3.334.25 4 2.167.167 5.25-.083 9.25-.75Zm-25.75-22c-.5-.166-1.333-.333-2.5-.5-.166.167.084.75.75 1.75.5-.166 1.084-.583 1.75-1.25Zm25.75 27.5c0-1.833-.833-2.75-2.5-2.75-.333 0-1.5.167-3.5.5-1.5.167-2.583.167-3.25 0-.833.667-.916 1.917-.25 3.75h8.75c.5-.333.75-.833.75-1.5Zm-.5 7.5c.167-.833.084-2-.25-3.5-.5.167-2.416.084-5.75-.25-2.5-.166-3.75.5-3.75 2 0 .5.084 1.167.25 2 .334 0 3.5-.083 9.5-.25Zm-27-25c-.666-.666-1.666-1.333-3-2-.833 1.167-1.25 1.834-1.25 2h4.25Zm3.75 6v-.25c-1.166-2.5-2.25-3.666-3.25-3.5-2-.166-4.833.167-8.5 1 .834 2 2.584 3.084 5.25 3.25-4.333-.333-2.166-.5 6.5-.5Zm22.75 22.25c-1.666.167-4.5.167-8.5 0-.833.667-1 1.917-.5 3.75h7.75c1.5-.833 1.917-2.083 1.25-3.75Zm-21.25-15.5c.5-2 .167-3.416-1-4.25l-6.5.75v1c0 1.334.5 2.25 1.5 2.75.5.167 1.5.167 3 0 1.667-.333 2.667-.416 3-.25Zm-.25 2.75h-5.75l-.25 3.75 5.25-.25c1.167-1.5 1.417-2.666.75-3.5Zm20 19h-5.25c-2.166-.166-3.25.417-3.25 1.75 0 .5.167 1.167.5 2l7-.25 1-3.5Zm-3.5 7.75c.167-.833-.083-1.333-.75-1.5-.333 0-1.083.167-2.25.5-1 .167-1.666.334-2 .5-.166 0-.5.334-1 1-.333.667-.333 1.25 0 1.75h3.5c1.167-.333 2-1.083 2.5-2.25Zm-19.75-20c-.666-.166-1.833-.333-3.5-.5-1.666 1.834-2.5 3.25-2.5 4.25 1.667.334 3.667-.916 6-3.75Zm14 25.5a9.595 9.595 0 0 1-1.25-.5c-.333 0-.75.5-1.25 1.5-.333.834-.666 1.334-1 1.5 1-.333 2.167-1.166 3.5-2.5Zm16.5 24.25c-4 2.167-8.416 3.25-13.25 3.25-5 0-9.333-1.166-13-3.5v1l-16.5.5c0 .167 1.334 1.417 4 3.75.334.167 11.917 0 34.75-.5l3.5-2.5c.167-1.333.334-2 .5-2Zm-35.25-8.25-3.75-3.75c-2.833.5-4.583 2-5.25 4.5 2.167.167 5.167-.083 9-.75Zm25.5 15.5c-5.5-.166-13.25.084-23.25.75 2.834 1.834 6.417 2.75 10.75 2.75 5 0 9.167-1.166 12.5-3.5Zm-18.75-9-4.75-4.25-.75.75h-13.5l-1.25 1c-.166.667.667 1.667 2.5 3 4.167.167 10.084 0 17.75-.5Z"/></svg>