<svg xmlns="http://www.w3.org/2000/svg" version="1.1" xmlns:xlink="http://www.w3.org/1999/xlink" xmlns:svgjs="http://svgjs.dev/svgjs" width="301" height="301"><svg width="301" height="301" viewBox="0 0 301 301" fill="none" xmlns="http://www.w3.org/2000/svg">
<rect x="0.795898" y="0.977196" width="300" height="300" rx="50" fill="white"></rect>
<path d="M148.56 53.5006C160.197 53.5006 170.898 55.1282 180.664 58.3834C190.43 61.6387 199.219 63.7545 207.031 64.7311C202.718 79.8678 202.555 96.1846 206.543 113.681C202.393 117.181 197.632 119.215 192.261 119.785C191.61 118.239 190.43 115.024 188.721 110.141C187.093 105.177 185.506 101.108 183.96 97.9342C182.495 94.7604 180.42 91.139 177.734 87.07C175.13 83.001 171.631 79.7864 167.236 77.4264C162.923 74.985 157.959 73.3167 152.344 72.4215C144.124 73.154 137.777 75.6767 133.301 79.9899C128.825 84.303 126.587 89.8776 126.587 96.7135C126.587 103.712 128.377 109.49 131.958 114.048C135.539 118.523 140.177 121.901 145.874 124.179C151.652 126.377 158 128.33 164.917 130.039C171.834 131.666 178.711 133.701 185.547 136.142C192.383 138.502 198.649 141.635 204.346 145.542C210.124 149.367 214.803 155.104 218.384 162.754C221.965 170.403 223.755 179.721 223.755 190.708C223.755 204.054 219.889 215.529 212.158 225.131C204.427 234.734 195.312 241.611 184.814 245.761C174.316 249.912 163.574 251.987 152.588 251.987C128.418 251.987 104.492 246.657 80.8105 235.996C81.2988 225.498 81.543 219.069 81.543 216.709C81.543 203.525 80.2816 189.365 77.7588 174.228C85.083 170.729 93.2617 170.566 102.295 173.74C105.306 192.213 111.125 206.373 119.751 216.22C128.459 226.067 137.98 231.561 148.315 232.7C158 232.049 165.446 228.916 170.654 223.3C175.944 217.604 178.589 210.402 178.589 201.694C178.589 194.37 176.88 188.185 173.462 183.139C170.044 178.012 165.527 174.065 159.912 171.298C154.297 168.45 148.193 165.887 141.602 163.608C135.091 161.329 128.499 158.929 121.826 156.406C115.153 153.802 109.009 150.709 103.394 147.129C97.8597 143.548 93.3838 138.543 89.9658 132.114C86.5479 125.685 84.8389 117.872 84.8389 108.676C84.8389 100.376 86.141 92.9293 88.7451 86.3375C91.4307 79.7458 94.8893 74.456 99.1211 70.4684C103.434 66.4808 108.439 63.1442 114.136 60.4586C119.914 57.7731 125.61 55.942 131.226 54.9655C136.922 53.9889 142.7 53.5006 148.56 53.5006ZM148.56 58.5055C141.724 58.5055 135.091 59.3193 128.662 60.9469C122.233 62.4931 115.967 65.0566 109.863 68.6374C103.841 72.2181 98.999 77.4671 95.3369 84.3844C91.6748 91.3017 89.8438 99.3991 89.8438 108.676C89.8438 116.896 91.5527 123.976 94.9707 129.917C98.3887 135.776 102.865 140.333 108.398 143.589C114.014 146.844 120.158 149.733 126.831 152.256C133.504 154.697 140.096 157.179 146.606 159.702C153.198 162.225 159.302 165.073 164.917 168.247C170.532 171.421 175.049 175.856 178.467 181.552C181.885 187.168 183.594 193.881 183.594 201.694C183.594 212.518 180.135 221.266 173.218 227.939C166.3 234.612 156.494 237.949 143.799 237.949C131.592 237.949 120.239 232.863 109.741 222.69C99.2432 212.518 92.3258 197.299 88.9893 177.036C87.3617 175.978 85.4492 175.978 83.252 177.036C85.4492 189.812 86.5479 203.037 86.5479 216.709C86.5479 220.534 86.3851 225.945 86.0596 232.944C106.242 242.303 125.488 246.982 143.799 246.982C158.936 246.982 172.933 242.506 185.791 233.554C198.649 224.521 205.078 211.907 205.078 195.713C205.078 186.517 203.288 178.745 199.707 172.397C196.126 165.968 191.447 160.963 185.669 157.382C179.891 153.802 173.543 150.709 166.626 148.105C159.709 145.501 152.832 143.06 145.996 140.781C139.16 138.421 132.853 135.817 127.075 132.968C121.379 130.12 116.74 126.092 113.159 120.883C109.578 115.594 107.788 109.205 107.788 101.718C107.788 91.2204 111.328 82.8382 118.408 76.5719C125.488 70.3056 135.539 67.1725 148.56 67.1725C171.183 67.1725 186.768 82.8382 195.312 114.17C197.835 114.576 199.585 114.007 200.562 112.461C197.876 92.6038 191.976 78.6471 182.861 70.5905C173.828 62.5338 162.394 58.5055 148.56 58.5055Z" fill="black"></path>
</svg><style>@media (prefers-color-scheme: light) { :root { filter: none; } }
@media (prefers-color-scheme: dark) { :root { filter: none; } }
</style></svg>