<svg xmlns="http://www.w3.org/2000/svg" width="256" height="256" viewBox="0 0 100 100"><rect width="100" height="100" rx="0"/><path fill="#fff" d="M26.23 71.09q3.73 0 5.93-1.33 2.2-1.34 2.2-3.68 0-1.52-.64-2.61-.64-1.08-2.55-1.99-1.92-.9-5.82-1.89-3.7-.96-6.48-2.28-2.79-1.31-4.32-3.4-1.52-2.1-1.52-5.4 0-3.23 1.81-5.65 1.81-2.41 5.2-3.76t7.97-1.35q4.72 0 8.23 1.25 3.52 1.24 6 3.08l-3.33 5.01q-2.2-1.46-4.81-2.38t-5.88-.92q-3.8 0-5.45 1.13-1.65 1.14-1.65 3.02 0 1.39.83 2.33.84.94 2.9 1.74 2.06.79 5.82 1.86 3.66.99 6.37 2.34 2.72 1.35 4.23 3.57t1.51 5.77q0 4.05-2.33 6.62-2.32 2.57-6.11 3.8-3.78 1.22-8.11 1.22-5.22 0-9.01-1.51-3.8-1.5-6.39-3.78l4.22-4.82q2.2 1.77 5.04 2.89t6.14 1.12m51.76-48.28q3.45 0 6.16.58 2.72.59 5.02 1.58l-2.34 5.51q-1.88-.79-3.92-1.14-2.04-.36-4.14-.36-3.69 0-5.46 1.41-1.78 1.4-1.78 4.42v6.63h12.53l-.85 5.86H71.53v28.93h-7.92V47.3h-8.52v-5.86h8.52v-6.7q0-3.55 1.8-6.24 1.79-2.68 5.02-4.18 3.23-1.51 7.56-1.51"/></svg>